<?xml version="1.0" encoding="UTF-8"?>
<svg id="_レイヤー_2" data-name="レイヤー 2" xmlns="http://www.w3.org/2000/svg" viewBox="0 0 90.03 90.77">
  <defs>
    <style>
      .cls-1 {
        fill: #fff;
        font-family: GillSans, 'Gill Sans';
        font-size: 7.71px;
      }
    </style>
  </defs>
  <g id="design">
    <text class="cls-1" transform="translate(60.97 80.92) rotate(159.38)"><tspan x="0" y="0">U</tspan></text>
    <text class="cls-1" transform="translate(56.05 82.81) rotate(167.74)"><tspan x="0" y="0">N</tspan></text>
    <text class="cls-1" transform="translate(50.31 83.99) rotate(174.78)"><tspan x="0" y="0">F</tspan></text>
    <text class="cls-1" transform="translate(46.91 84.4) rotate(-178.01)"><tspan x="0" y="0">O</tspan></text>
    <text class="cls-1" transform="translate(40.73 84.11) rotate(-170.67)"><tspan x="0" y="0">L</tspan></text>
    <text class="cls-1" transform="translate(37.17 83.6) rotate(-163.81)"><tspan x="0" y="0">D</tspan></text>
    <text class="cls-1" transform="translate(31.78 81.95) rotate(-158.12)"><tspan x="0" y="0"> </tspan></text>
    <text class="cls-1" transform="translate(29.84 81.17) rotate(-155.01)"><tspan x="0" y="0"> </tspan></text>
    <text class="cls-1" transform="translate(27.98 80.4) rotate(-149.55)"><tspan x="0" y="0">U</tspan></text>
    <text class="cls-1" transform="translate(23.43 77.76) rotate(-141.29)"><tspan x="0" y="0">N</tspan></text>
    <text class="cls-1" transform="translate(18.9 74.05) rotate(-134.34)"><tspan x="0" y="0">F</tspan></text>
    <text class="cls-1" transform="translate(16.42 71.65) rotate(-127.22)"><tspan x="0" y="0">O</tspan></text>
    <text class="cls-1" transform="translate(12.74 66.68) rotate(-120.06)"><tspan x="0" y="0">L</tspan></text>
    <text class="cls-1" transform="translate(10.87 63.59) rotate(-113.4)"><tspan x="0" y="0">D</tspan></text>
    <text class="cls-1" transform="translate(8.7 58.38) rotate(-107.81)"><tspan x="0" y="0"> </tspan></text>
    <text class="cls-1" transform="translate(8.07 56.42) rotate(-104.79)"><tspan x="0" y="0"> </tspan></text>
    <text class="cls-1" transform="translate(7.47 54.48) rotate(-99.38)"><tspan x="0" y="0">U</tspan></text>
    <text class="cls-1" transform="translate(6.58 49.29) rotate(-91.27)"><tspan x="0" y="0">N</tspan></text>
    <text class="cls-1" transform="translate(6.51 43.42) rotate(-84.47)"><tspan x="0" y="0">F</tspan></text>
    <text class="cls-1" transform="translate(6.75 39.99) rotate(-77.52)"><tspan x="0" y="0">O</tspan></text>
    <text class="cls-1" transform="translate(8.16 33.97) rotate(-70.41)"><tspan x="0" y="0">L</tspan></text>
    <text class="cls-1" transform="translate(9.31 30.53) rotate(-63.69)"><tspan x="0" y="0">D</tspan></text>
    <text class="cls-1" transform="translate(11.87 25.53) rotate(-58.11)"><tspan x="0" y="0"> </tspan></text>
    <text class="cls-1" transform="translate(12.97 23.76) rotate(-55.03)"><tspan x="0" y="0"> </tspan></text>
    <text class="cls-1" transform="translate(14.05 22.06) rotate(-49.6)"><tspan x="0" y="0">U</tspan></text>
    <text class="cls-1" transform="translate(17.45 18.02) rotate(-41.33)"><tspan x="0" y="0">N</tspan></text>
    <text class="cls-1" transform="translate(21.88 14.2) rotate(-34.42)"><tspan x="0" y="0">F</tspan></text>
    <text class="cls-1" transform="translate(24.68 12.17) rotate(-27.36)"><tspan x="0" y="0">O</tspan></text>
    <text class="cls-1" transform="translate(30.17 9.41) rotate(-20.12)"><tspan x="0" y="0">L</tspan></text>
    <text class="cls-1" transform="translate(33.54 8.1) rotate(-13.16)"><tspan x="0" y="0">D</tspan></text>
    <text class="cls-1" transform="translate(39.07 6.89) rotate(-7.35)"><tspan x="0" y="0"> </tspan></text>
    <text class="cls-1" transform="translate(41.11 6.63) rotate(-4.25)"><tspan x="0" y="0"> </tspan></text>
    <text class="cls-1" transform="translate(43.12 6.39) rotate(1.29)"><tspan x="0" y="0">U</tspan></text>
    <text class="cls-1" transform="translate(48.38 6.48) rotate(9.59)"><tspan x="0" y="0">N</tspan></text>
    <text class="cls-1" transform="translate(54.14 7.52) rotate(16.54)"><tspan x="0" y="0">F</tspan></text>
    <text class="cls-1" transform="translate(57.48 8.41) rotate(23.69)"><tspan x="0" y="0">O</tspan></text>
    <text class="cls-1" transform="translate(63.1 10.95) rotate(30.97)"><tspan x="0" y="0">L</tspan></text>
    <text class="cls-1" transform="translate(66.25 12.76) rotate(37.88)"><tspan x="0" y="0">D</tspan></text>
    <text class="cls-1" transform="translate(70.64 16.28) rotate(43.57)"><tspan x="0" y="0"> </tspan></text>
    <text class="cls-1" transform="translate(72.13 17.7) rotate(46.64)"><tspan x="0" y="0"> </tspan></text>
    <text class="cls-1" transform="translate(73.59 19.12) rotate(52.1)"><tspan x="0" y="0">U</tspan></text>
    <text class="cls-1" transform="translate(76.84 23.24) rotate(60.17)"><tspan x="0" y="0">N</tspan></text>
    <text class="cls-1" transform="translate(79.7 28.36) rotate(66.92)"><tspan x="0" y="0">F</tspan></text>
    <text class="cls-1" transform="translate(81.15 31.51) rotate(73.97)"><tspan x="0" y="0">O</tspan></text>
    <text class="cls-1" transform="translate(82.78 37.46) rotate(81.15)"><tspan x="0" y="0">L</tspan></text>
    <text class="cls-1" transform="translate(83.41 41.03) rotate(87.91)"><tspan x="0" y="0">D</tspan></text>
    <text class="cls-1" transform="translate(83.53 46.67) rotate(93.48)"><tspan x="0" y="0"> </tspan></text>
    <text class="cls-1" transform="translate(83.41 48.71) rotate(96.46)"><tspan x="0" y="0"> </tspan></text>
    <text class="cls-1" transform="translate(83.18 50.78) rotate(99.47)"><tspan x="0" y="0"> </tspan></text>
    <text class="cls-1" transform="translate(82.93 52.79) rotate(104.81)"><tspan x="0" y="0">U</tspan></text>
    <text class="cls-1" transform="translate(81.61 57.9) rotate(112.86)"><tspan x="0" y="0">N</tspan></text>
    <text class="cls-1" transform="translate(79.28 63.26) rotate(119.65)"><tspan x="0" y="0">F</tspan></text>
    <text class="cls-1" transform="translate(77.65 66.32) rotate(126.76)"><tspan x="0" y="0">O</tspan></text>
    <text class="cls-1" transform="translate(73.92 71.2) rotate(133.98)"><tspan x="0" y="0">L</tspan></text>
    <text class="cls-1" transform="translate(71.45 73.86) rotate(140.87)"><tspan x="0" y="0">D</tspan></text>
  </g>
</svg>