<?xml version="1.0" encoding="UTF-8"?>
<svg id="_レイヤー_2" data-name="レイヤー 2" xmlns="http://www.w3.org/2000/svg" viewBox="0 0 227.57 227.57">
  <defs>
    <style>
      .cls-1 {
        fill: #fff;
        font-family: GillSans, 'Gill Sans';
        font-size: 19.31px;
      }
    </style>
  </defs>
  <g id="design">
    <text class="cls-1" transform="translate(156.48 201.69) rotate(158.07)"><tspan x="0" y="0">U</tspan></text>
    <text class="cls-1" transform="translate(144.1 206.76) rotate(166.38)"><tspan x="0" y="0">N</tspan></text>
    <text class="cls-1" transform="translate(129.63 210.1) rotate(173.37)"><tspan x="0" y="0">F</tspan></text>
    <text class="cls-1" transform="translate(120.94 211.35) rotate(-179.44)"><tspan x="0" y="0">O</tspan></text>
    <text class="cls-1" transform="translate(105.29 211.02) rotate(-172.16)"><tspan x="0" y="0">L</tspan></text>
    <text class="cls-1" transform="translate(96.16 209.93) rotate(-165.31)"><tspan x="0" y="0">D</tspan></text>
    <text class="cls-1" transform="translate(82.36 206.1) rotate(-159.64)"><tspan x="0" y="0"> </tspan></text>
    <text class="cls-1" transform="translate(77.43 204.27) rotate(-156.56)"><tspan x="0" y="0"> </tspan></text>
    <text class="cls-1" transform="translate(72.64 202.43) rotate(-151.1)"><tspan x="0" y="0">U</tspan></text>
    <text class="cls-1" transform="translate(60.88 196.03) rotate(-142.82) scale(1.01)"><tspan x="0" y="0">N</tspan></text>
    <text class="cls-1" transform="translate(49.15 186.94) rotate(-135.83) scale(1.01)"><tspan x="0" y="0">F</tspan></text>
    <text class="cls-1" transform="translate(42.69 181) rotate(-128.62)"><tspan x="0" y="0">O</tspan></text>
    <text class="cls-1" transform="translate(33.06 168.65) rotate(-121.36)"><tspan x="0" y="0">L</tspan></text>
    <text class="cls-1" transform="translate(28.12 160.87) rotate(-114.57)"><tspan x="0" y="0">D</tspan></text>
    <text class="cls-1" transform="translate(22.36 147.77) rotate(-108.87)"><tspan x="0" y="0"> </tspan></text>
    <text class="cls-1" transform="translate(20.66 142.8) rotate(-105.77)"><tspan x="0" y="0"> </tspan></text>
    <text class="cls-1" transform="translate(19.05 137.91) rotate(-100.25)"><tspan x="0" y="0">U</tspan></text>
    <text class="cls-1" transform="translate(16.59 124.77) rotate(-91.95)"><tspan x="0" y="0">N</tspan></text>
    <text class="cls-1" transform="translate(16.25 109.93) rotate(-85.01)"><tspan x="0" y="0">F</tspan></text>
    <text class="cls-1" transform="translate(16.78 101.16) rotate(-77.86) scale(1.01)"><tspan x="0" y="0">O</tspan></text>
    <text class="cls-1" transform="translate(20.25 85.88) rotate(-70.61)"><tspan x="0" y="0">L</tspan></text>
    <text class="cls-1" transform="translate(23.14 77.15) rotate(-63.76)"><tspan x="0" y="0">D</tspan></text>
    <text class="cls-1" transform="translate(29.66 64.4) rotate(-58.05)"><tspan x="0" y="0"> </tspan></text>
    <text class="cls-1" transform="translate(32.43 59.95) rotate(-54.96)"><tspan x="0" y="0"> </tspan></text>
    <text class="cls-1" transform="translate(35.2 55.63) rotate(-49.45) scale(1.01)"><tspan x="0" y="0">U</tspan></text>
    <text class="cls-1" transform="translate(43.82 45.42) rotate(-41.14)"><tspan x="0" y="0">N</tspan></text>
    <text class="cls-1" transform="translate(55.13 35.76) rotate(-34.18) scale(1.01)"><tspan x="0" y="0">F</tspan></text>
    <text class="cls-1" transform="translate(62.26 30.63) rotate(-27.1) scale(1.01)"><tspan x="0" y="0">O</tspan></text>
    <text class="cls-1" transform="translate(76.28 23.66) rotate(-19.85) scale(1.01)"><tspan x="0" y="0">L</tspan></text>
    <text class="cls-1" transform="translate(84.86 20.37) rotate(-12.93) scale(1.01)"><tspan x="0" y="0">D</tspan></text>
    <text class="cls-1" transform="translate(98.86 17.38) rotate(-7.18) scale(1.01)"><tspan x="0" y="0"> </tspan></text>
    <text class="cls-1" transform="translate(104.08 16.72) rotate(-4.07)"><tspan x="0" y="0"> </tspan></text>
    <text class="cls-1" transform="translate(109.17 16.14) rotate(1.41) scale(1.01)"><tspan x="0" y="0">U</tspan></text>
    <text class="cls-1" transform="translate(122.57 16.39) rotate(9.67)"><tspan x="0" y="0">N</tspan></text>
    <text class="cls-1" transform="translate(137.18 19.04) rotate(16.57)"><tspan x="0" y="0">F</tspan></text>
    <text class="cls-1" transform="translate(145.66 21.31) rotate(23.69)"><tspan x="0" y="0">O</tspan></text>
    <text class="cls-1" transform="translate(159.94 27.77) rotate(30.98)"><tspan x="0" y="0">L</tspan></text>
    <text class="cls-1" transform="translate(167.91 32.36) rotate(37.89)"><tspan x="0" y="0">D</tspan></text>
    <text class="cls-1" transform="translate(179.06 41.3) rotate(43.62)"><tspan x="0" y="0"> </tspan></text>
    <text class="cls-1" transform="translate(182.87 44.93) rotate(46.74)"><tspan x="0" y="0"> </tspan></text>
    <text class="cls-1" transform="translate(186.54 48.52) rotate(52.23)"><tspan x="0" y="0">U</tspan></text>
    <text class="cls-1" transform="translate(194.76 59.09) rotate(60.01)"><tspan x="0" y="0">N</tspan></text>
    <text class="cls-1" transform="translate(201.99 72.04) rotate(67.29) scale(1.01)"><tspan x="0" y="0">F</tspan></text>
    <text class="cls-1" transform="translate(205.6 80.05) rotate(74.49)"><tspan x="0" y="0">O</tspan></text>
    <text class="cls-1" transform="translate(209.62 95.18) rotate(81.83)"><tspan x="0" y="0">L</tspan></text>
    <text class="cls-1" transform="translate(211.1 104.28) rotate(88.76)"><tspan x="0" y="0">D</tspan></text>
    <text class="cls-1" transform="translate(211.19 118.59) rotate(94.47)"><tspan x="0" y="0"> </tspan></text>
    <text class="cls-1" transform="translate(210.79 123.81) rotate(97.54)"><tspan x="0" y="0"> </tspan></text>
    <text class="cls-1" transform="translate(210.11 129) rotate(100.6)"><tspan x="0" y="0"> </tspan></text>
    <text class="cls-1" transform="translate(209.37 134.1) rotate(106.05) scale(1.01)"><tspan x="0" y="0">U</tspan></text>
    <text class="cls-1" transform="translate(205.75 146.98) rotate(114.27)"><tspan x="0" y="0">N</tspan></text>
    <text class="cls-1" transform="translate(199.5 160.44) rotate(121.19) scale(1.01)"><tspan x="0" y="0">F</tspan></text>
    <text class="cls-1" transform="translate(195.15 168.1) rotate(128.41)"><tspan x="0" y="0">O</tspan></text>
    <text class="cls-1" transform="translate(185.29 180.24) rotate(135.75)"><tspan x="0" y="0">L</tspan></text>
    <text class="cls-1" transform="translate(178.83 186.78) rotate(142.66)"><tspan x="0" y="0">D</tspan></text>
  </g>
</svg>